<svg id="图层_1" data-name="图层 1" xmlns="http://www.w3.org/2000/svg" viewBox="0 0 46.04 40.54"><defs><style>.cls-1{fill:#5f88fb;}</style></defs><title>1</title><path class="cls-1" d="M53.17,525.67H86.94a1.13,1.13,0,0,0,1.13-1.19c-.11-1.93-1.17-5.73-7.41-7.87-4-1.53-5-2.09-5.15-2.55s-.14-4.08-.14-4.08a10.67,10.67,0,0,0,1.91-4.08c.35-.1,1.76-1,1.65-4a77.88,77.88,0,0,1-17.74-.15s-.32,3.18,1.47,4.13a10.12,10.12,0,0,0,2,3.91c0,1.63,0,3.43,0,3.43s-.53,1.75-4.38,3c-3.57,1.19-7.7,3.1-8.26,8.13A1.13,1.13,0,0,0,53.17,525.67Z" transform="translate(-52.03 -485.13)"/><path class="cls-1" d="M80.79,499.5c.06-.44.44-3.92-1.79-4.37a10,10,0,0,0-1.57-5.07l-.23-.35a10.66,10.66,0,0,0-.66-.86c-.35-.26-.55.19-.55.19l-1.26,2.54s-.11.38-.3.32-.15-.4-.15-.4,0-3.43,0-4.08a1.17,1.17,0,0,0-.48-.92,14.41,14.41,0,0,0-2.47-1.21H68.76A14.13,14.13,0,0,0,66,486.7a1.1,1.1,0,0,0-.28.73c0,.65,0,4.08,0,4.08s0,.34-.15.4-.3-.32-.3-.32L64,489s-.14-.32-.39-.26a10.21,10.21,0,0,0-2.52,6.36c-2.23.45-1.85,3.93-1.79,4.37l-.06,0s1.15.25,3.11.5a57.84,57.84,0,0,0,7.42.48h.54a57.84,57.84,0,0,0,7.42-.48c2-.25,3.11-.5,3.11-.5Z" transform="translate(-52.03 -485.13)"/><path class="cls-1" d="M91.52,497.91c.05-.39.39-3.52-1.61-3.93a9,9,0,0,0-1.41-4.56l-.21-.32a9.62,9.62,0,0,0-.59-.77c-.31-.24-.49.17-.49.17l-1.14,2.29s-.1.34-.27.29-.13-.36-.13-.36,0-3.09,0-3.67a1,1,0,0,0-.43-.83A13,13,0,0,0,83,485.13H80.7a12.71,12.71,0,0,0-2.48,1.26A1,1,0,0,0,78,487v.31a10.19,10.19,0,0,1,2.61,6.36s2.2.75,2.26,5.1a51.36,51.36,0,0,0,5.93-.42c1.76-.22,2.8-.45,2.8-.45Z" transform="translate(-52.03 -485.13)"/><path class="cls-1" d="M91.41,513.3c-3.56-1.37-4.51-1.88-4.63-2.29s-.13-3.67-.13-3.67a9.59,9.59,0,0,0,1.72-3.67c.32-.09,1.58-.9,1.48-3.58a68.19,68.19,0,0,1-9.3.36c.14,1.22.31,4.46-1.39,6.84a12.5,12.5,0,0,1-1.89,3v2.83s9.54,2.52,12.37,8.34h7.29a1.13,1.13,0,0,0,1.13-1.2C97.93,518.48,96.89,515.18,91.41,513.3Z" transform="translate(-52.03 -485.13)"/></svg>