<svg id="图层_1" data-name="图层 1" xmlns="http://www.w3.org/2000/svg" viewBox="0 0 43.32 39.13"><defs><style>.cls-1{fill:#ff9500;}</style></defs><title>5</title><path class="cls-1" d="M1320,486.71h-12.94l2.8,2.79h9.44v23.76h-37.73V489.51H1310l2.8-2.79h-31.9a2.1,2.1,0,0,0-2.1,2.1v28a2.1,2.1,0,0,0,2.1,2.1h13.28v3.49l-2.8,2.79v.7h18.17v-.7l-2.79-2.79v-3.49H1320a2.1,2.1,0,0,0,2.1-2.1v-28a2.1,2.1,0,0,0-2.1-2.1Zm0,0" transform="translate(-1278.82 -486.71)"/><path class="cls-1" d="M1299.6,495a.71.71,0,0,0-.71-.71h-2.13a.71.71,0,0,0-.71.71v14.19h3.55Z" transform="translate(-1278.82 -486.71)"/><path class="cls-1" d="M1294.29,499.27a.71.71,0,0,0-.71-.71h-2.13a.71.71,0,0,0-.71.71v9.93h3.55Z" transform="translate(-1278.82 -486.71)"/><path class="cls-1" d="M1304.91,503.53a.71.71,0,0,0-.71-.71h-2.13a.71.71,0,0,0-.71.71v5.68h3.55Z" transform="translate(-1278.82 -486.71)"/><path class="cls-1" d="M1309.51,507.08h-2.13a.71.71,0,0,0-.71.71v1.42h3.55v-1.42a.71.71,0,0,0-.71-.71Z" transform="translate(-1278.82 -486.71)"/><path class="cls-1" d="M1307.41,507.08" transform="translate(-1278.82 -486.71)"/></svg>