<svg id="图层_1" data-name="图层 1" xmlns="http://www.w3.org/2000/svg" viewBox="0 0 38.65 40.18"><defs><style>.cls-1{fill:#5096ef;}</style></defs><title>6</title><path class="cls-1" d="M1054.8,422a7.1,7.1,0,0,0-6.89,8.8c.72,2.93,6.21,10.17,6.44,10.48a.57.57,0,0,0,.9,0c.23-.31,5.72-7.55,6.44-10.48a7.1,7.1,0,0,0-6.89-8.8Zm0,9.93a2.84,2.84,0,1,1,2-.83,2.84,2.84,0,0,1-2,.83Zm0,0" transform="translate(-1023.25 -422.03)"/><path class="cls-1" d="M1058,442.33c0,.37.06.74.06,1.12,0,.09,0,.18,0,.27,0-.44-.07-.87-.12-1.29-1.33,1.87-2.35,3.21-2.47,3.37a.83.83,0,0,1-1.32,0c-.12-.16-3.06.15-2,1.18a13.63,13.63,0,0,1,2,2.65c-.53,1.56,2,.94,3.21-1.71A16.09,16.09,0,0,1,1045.95,459c-.08-.41-.45-.63-1.11-.46.53-2.26.79-3.52,1.9-4.48a1.5,1.5,0,0,0-1-2.75c-1,.15-.35-1.19-1.21-1.26s-2-1.78-3.21-2.36c-.65-.31-1.3-1.14-2.31-1.18s-2.2.76-2.2.15a37.92,37.92,0,0,0-.24-3.92c0-.45-.29-.15.92-.12.66,0,.34-1.32,1-1.37s2.16.6,2.55.34,2.65,6,2.65,1c0-.59-.31-1.62,0-2.18,1.21-2.21,2.34-4,2.24-4.28a3.32,3.32,0,0,0-2.18,0c-.32.11.1.61-.36.71-1.72.4-3.23-.46-2.7-1.27s2.51-.36,2.69-2c.1-1,.18-2.05.24-2.87a1.38,1.38,0,0,0,1.15-.24l0-.13a10.41,10.41,0,0,1-.28-2.06,3.7,3.7,0,0,0-2.21-.92,16.13,16.13,0,0,1,2.2.19,10.43,10.43,0,0,1,.41-2.63,18.72,18.72,0,1,0-5.14,37.08,9.34,9.34,0,0,0,1.91.17,6,6,0,0,0,.62,0,18.67,18.67,0,0,0,18-23.06C1059.45,440.27,1058.68,441.37,1058,442.33Zm-18.79,16.93a16.07,16.07,0,0,1-12.94-19.12,1.7,1.7,0,0,0,2.73-.38c.71.43,1.67.5,1.67,1.35,0,2.81.1,5.81,2.65,5.86a3.63,3.63,0,0,1,2.06,2.18c.22.58,1.1,0,2.06,0,.48,0,0,.81,0,2.56s3.76,4.43,3.76,4.43a20.22,20.22,0,0,0,.13,2.84A6.29,6.29,0,0,0,1039.21,459.27Z" transform="translate(-1023.25 -422.03)"/></svg>