<svg id="图层_1" data-name="图层 1" xmlns="http://www.w3.org/2000/svg" viewBox="0 0 45.24 40.22"><defs><style>.cls-1{fill:#f36c7a;}</style></defs><title>2</title><path class="cls-1" d="M399.31,503.88l-4.61-4.07V489.09a1.26,1.26,0,0,0-1.26-1.26h-5a1.26,1.26,0,0,0-1.26,1.26v4.06l-8-7a3.13,3.13,0,0,0-4.2,0L354.9,503.88a1.26,1.26,0,0,0-.09,1.78l1.68,1.87a1.26,1.26,0,0,0,1.78.1l18-15.89a1.26,1.26,0,0,1,1.66,0l18,15.89a1.26,1.26,0,0,0,1.78-.09l1.68-1.87a1.26,1.26,0,0,0-.1-1.77Z" transform="translate(-354.48 -485.32)"/><path class="cls-1" d="M399.31,503.88" transform="translate(-354.48 -485.32)"/><rect class="cls-1" x="29.15" y="27.21" width="4.6" height="1.15"/><rect class="cls-1" x="29.15" y="29.64" width="4.6" height="1.15"/><rect class="cls-1" x="29.15" y="32.08" width="4.6" height="1.15"/><rect class="cls-1" x="29.15" y="34.51" width="4.6" height="1.15"/><path class="cls-1" d="M394.29,509.51,377.1,494.35l-17.17,15.14a3.57,3.57,0,0,1-.43.26v14.53a1.26,1.26,0,0,0,1.26,1.26h32.68a1.26,1.26,0,0,0,1.26-1.26V509.76A3.7,3.7,0,0,1,394.29,509.51Zm-22.23,14.73H364.5V508.78h7.56Zm17.65,0h-7.56V508.78h7.56Z" transform="translate(-354.48 -485.32)"/><rect class="cls-1" x="11.49" y="27.21" width="4.6" height="1.15"/><rect class="cls-1" x="11.49" y="29.64" width="4.6" height="1.15"/><rect class="cls-1" x="11.49" y="32.08" width="4.6" height="1.15"/><rect class="cls-1" x="11.49" y="34.51" width="4.6" height="1.15"/></svg>