<svg id="图层_1" data-name="图层 1" xmlns="http://www.w3.org/2000/svg" viewBox="0 0 44.09 40.44"><defs><style>.cls-1{fill:#feb23a;}</style></defs><title>3</title><rect class="cls-1" x="3.76" y="12.04" width="36.56" height="1.89"/><path class="cls-1" d="M677.52,498.28v22.45a1.13,1.13,0,0,0,1.13,1.13h30a1.13,1.13,0,0,0,1.13-1.13V498.28Zm7,20.47h-2V501.39h2Zm4.07,0h-2V501.39h2Zm4.07,0h-2V501.39h2Zm4.07,0h-2V501.39h2Zm4.07,0h-2V501.39h2Zm4.07,0h-2V501.39h2Z" transform="translate(-671.64 -485.29)"/><rect class="cls-1" x="40.33" y="16.29" width="3.76" height="18" rx="1.13" ry="1.13"/><rect class="cls-1" y="16.29" width="3.76" height="18" rx="1.13" ry="1.13"/><rect class="cls-1" x="8.86" y="38.34" width="5.95" height="2.1" rx="1.05" ry="1.05"/><rect class="cls-1" x="29.21" y="38.34" width="5.95" height="2.1" rx="1.05" ry="1.05"/><rect class="cls-1" x="6.44" y="8.02" width="6.82" height="1.94"/><rect class="cls-1" x="6.44" y="4.01" width="6.82" height="1.94"/><path class="cls-1" d="M683.73,497.95h-4.48V487.43a2.13,2.13,0,0,1,2.13-2.13h0a2.35,2.35,0,0,1,2.35,2.35Z" transform="translate(-671.64 -485.29)"/><rect class="cls-1" x="31.33" y="8.02" width="6.82" height="1.94"/><rect class="cls-1" x="31.33" y="4.01" width="6.82" height="1.94"/><path class="cls-1" d="M708.62,497.95h-4.48V487.43a2.13,2.13,0,0,1,2.13-2.13h0a2.35,2.35,0,0,1,2.35,2.35Z" transform="translate(-671.64 -485.29)"/><rect class="cls-1" x="18.89" y="8.02" width="6.82" height="1.94"/><rect class="cls-1" x="18.89" y="4.01" width="6.82" height="1.94"/><path class="cls-1" d="M696.17,497.95h-4.48V487.43a2.13,2.13,0,0,1,2.13-2.13h0a2.35,2.35,0,0,1,2.35,2.35Z" transform="translate(-671.64 -485.29)"/></svg>